<svg width="16" height="17" viewBox="0 0 16 17" fill="none" xmlns="http://www.w3.org/2000/svg">
<path d="M1.71387 6.28515L7.80187 9.45143C7.86294 9.48319 7.93075 9.49976 7.99958 9.49976C8.06841 9.49976 8.13623 9.48319 8.1973 9.45143L14.2853 6.28572V11.7857C14.2853 12.2601 14.1038 12.7165 13.7781 13.0613C13.4523 13.4061 13.0069 13.6131 12.5333 13.64L12.4282 13.6429H3.57101C3.09665 13.6429 2.64025 13.4614 2.29545 13.1356C1.95065 12.8098 1.74358 12.3645 1.71672 11.8909L1.71387 11.7857V6.28515ZM3.57101 3.35715H12.4282C12.9025 3.35712 13.3589 3.53861 13.7037 3.86439C14.0485 4.19017 14.2556 4.63554 14.2824 5.10915L14.2853 5.21429V5.31943L7.99958 8.588L1.71387 5.31943V5.21429C1.71384 4.73993 1.89533 4.28353 2.22111 3.93873C2.54689 3.59393 2.99226 3.38686 3.46587 3.36L3.57101 3.35715H12.4282H3.57101Z" fill="white"/>
</svg>
