<?xml version="1.0" standalone="no"?>
<!DOCTYPE svg PUBLIC "-//W3C//DTD SVG 20010904//EN"
 "http://www.w3.org/TR/2001/REC-SVG-20010904/DTD/svg10.dtd">
<svg version="1.0" xmlns="http://www.w3.org/2000/svg"
 width="1024.000000pt" height="1024.000000pt" viewBox="0 0 1024.000000 1024.000000"
 preserveAspectRatio="xMidYMid meet">
<metadata>
Created by potrace 1.14, written by Peter Selinger 2001-2017
</metadata>
<g transform="translate(0.000000,1024.000000) scale(0.100000,-0.100000)"
fill="#000000" stroke="none">
<path d="M3496 8423 c146 -208 295 -421 332 -473 l66 -95 469 3 c385 2 469 0
464 -10 -5 -14 -79 -123 -313 -459 -79 -114 -144 -212 -144 -218 0 -8 71 -11
243 -11 274 0 408 -10 582 -45 769 -154 1387 -742 1585 -1509 47 -179 63 -310
63 -511 0 -263 -39 -480 -128 -721 -183 -491 -562 -910 -1028 -1134 -101 -48
-116 -59 -102 -70 8 -7 15 -19 15 -27 0 -7 7 -16 15 -19 8 -4 15 -12 15 -20 0
-14 43 -97 64 -124 7 -8 25 -40 41 -70 16 -30 43 -77 60 -105 18 -27 45 -75
62 -105 57 -103 75 -135 83 -140 4 -3 23 -34 42 -70 69 -129 101 -185 118
-210 9 -14 20 -33 23 -42 4 -10 11 -18 17 -18 5 0 10 -7 10 -15 0 -8 5 -15 10
-15 6 0 9 -3 9 -7 -4 -22 2 -44 10 -39 5 3 12 -5 15 -19 4 -14 11 -25 17 -25
6 0 8 -4 4 -9 -3 -6 5 -19 17 -30 12 -12 19 -21 15 -21 -8 0 26 -70 53 -110
32 -47 74 -115 75 -120 2 -12 39 -75 51 -88 8 -7 14 -19 14 -26 0 -46 51 -31
290 88 344 172 637 383 921 666 633 631 993 1419 1060 2320 25 346 -1 821 -62
1124 -112 559 -371 1112 -724 1551 -548 679 -1311 1137 -2160 1294 -300 56
-257 54 -1438 58 l-1097 4 266 -378z m633 74 c83 -147 151 -269 151 -272 0 -3
-142 -5 -316 -5 -182 0 -314 4 -312 9 14 40 314 549 319 543 4 -4 75 -127 158
-275z"/>
<path d="M3179 8368 c-5 -11 -3 -460 1 -463 7 -4 52 58 222 308 l108 157 -165
0 c-91 0 -165 -1 -166 -2z"/>
<path d="M2820 7584 c1 -199 2 -205 19 -182 35 45 261 376 261 382 0 3 -63 6
-140 6 l-140 0 0 -206z"/>
<path d="M4112 5725 c6 -14 15 -25 20 -25 5 0 6 -4 3 -10 -3 -5 -1 -10 4 -10
6 0 11 -7 11 -14 0 -8 16 -41 35 -73 l35 -58 0 108 0 107 -60 0 -60 0 12 -25z"/>
</g>
</svg>
