<svg width="1920" height="461" viewBox="0 0 1920 461" fill="none" xmlns="http://www.w3.org/2000/svg">
<g filter="url(#filter0_ddddd_59_369)">
<path fill-rule="evenodd" clip-rule="evenodd" d="M0 388L80 369C160 350 320 312 480 302C640 292 800 312 960 331C1120 350 1280 369 1440 360C1600 350 1760 312 1840 292L1920 273V446H1840C1760 446 1600 446 1440 446C1280 446 1120 446 960 446C800 446 640 446 480 446C320 446 160 446 80 446H0V388Z" fill="#ECECEC"/>
<path fill-rule="evenodd" clip-rule="evenodd" d="M0 388L80 369C160 350 320 312 480 302C640 292 800 312 960 331C1120 350 1280 369 1440 360C1600 350 1760 312 1840 292L1920 273V446H1840C1760 446 1600 446 1440 446C1280 446 1120 446 960 446C800 446 640 446 480 446C320 446 160 446 80 446H0V388Z" stroke="black"/>
</g>
<defs>
<filter id="filter0_ddddd_59_369" x="-78" y="0" width="2076" height="461" filterUnits="userSpaceOnUse" color-interpolation-filters="sRGB">
<feFlood flood-opacity="0" result="BackgroundImageFix"/>
<feColorMatrix in="SourceAlpha" type="matrix" values="0 0 0 0 0 0 0 0 0 0 0 0 0 0 0 0 0 0 127 0" result="hardAlpha"/>
<feOffset/>
<feColorMatrix type="matrix" values="0 0 0 0 0 0 0 0 0 0 0 0 0 0 0 0 0 0 0.05 0"/>
<feBlend mode="normal" in2="BackgroundImageFix" result="effect1_dropShadow_59_369"/>
<feColorMatrix in="SourceAlpha" type="matrix" values="0 0 0 0 0 0 0 0 0 0 0 0 0 0 0 0 0 0 127 0" result="hardAlpha"/>
<feOffset dy="-12"/>
<feGaussianBlur stdDeviation="13.5"/>
<feColorMatrix type="matrix" values="0 0 0 0 0 0 0 0 0 0 0 0 0 0 0 0 0 0 0.05 0"/>
<feBlend mode="normal" in2="effect1_dropShadow_59_369" result="effect2_dropShadow_59_369"/>
<feColorMatrix in="SourceAlpha" type="matrix" values="0 0 0 0 0 0 0 0 0 0 0 0 0 0 0 0 0 0 127 0" result="hardAlpha"/>
<feOffset dy="-49"/>
<feGaussianBlur stdDeviation="24.5"/>
<feColorMatrix type="matrix" values="0 0 0 0 0 0 0 0 0 0 0 0 0 0 0 0 0 0 0.04 0"/>
<feBlend mode="normal" in2="effect2_dropShadow_59_369" result="effect3_dropShadow_59_369"/>
<feColorMatrix in="SourceAlpha" type="matrix" values="0 0 0 0 0 0 0 0 0 0 0 0 0 0 0 0 0 0 127 0" result="hardAlpha"/>
<feOffset dy="-110"/>
<feGaussianBlur stdDeviation="33"/>
<feColorMatrix type="matrix" values="0 0 0 0 0 0 0 0 0 0 0 0 0 0 0 0 0 0 0.03 0"/>
<feBlend mode="normal" in2="effect3_dropShadow_59_369" result="effect4_dropShadow_59_369"/>
<feColorMatrix in="SourceAlpha" type="matrix" values="0 0 0 0 0 0 0 0 0 0 0 0 0 0 0 0 0 0 127 0" result="hardAlpha"/>
<feOffset dy="-195"/>
<feGaussianBlur stdDeviation="39"/>
<feColorMatrix type="matrix" values="0 0 0 0 0 0 0 0 0 0 0 0 0 0 0 0 0 0 0.01 0"/>
<feBlend mode="normal" in2="effect4_dropShadow_59_369" result="effect5_dropShadow_59_369"/>
<feBlend mode="normal" in="SourceGraphic" in2="effect5_dropShadow_59_369" result="shape"/>
</filter>
</defs>
</svg>
