<svg width="1920" height="776" viewBox="0 0 1920 776" fill="none" xmlns="http://www.w3.org/2000/svg">
<g opacity="0.45">
<mask id="mask0_59_363" style="mask-type:alpha" maskUnits="userSpaceOnUse" x="0" y="0" width="1920" height="776">
<rect width="1920" height="776" fill="#D9D9D9"/>
</mask>
<g mask="url(#mask0_59_363)">
<rect x="1453.67" y="797.361" width="493.825" height="684" transform="rotate(150 1453.67 797.361)" fill="url(#paint0_linear_59_363)"/>
<rect x="1848.67" y="797.361" width="493.825" height="874.323" transform="rotate(150 1848.67 797.361)" fill="url(#paint1_linear_59_363)"/>
<rect x="2316.83" y="797.361" width="493.825" height="874.323" transform="rotate(150 2316.83 797.361)" fill="url(#paint2_linear_59_363)"/>
<rect x="738.665" y="797.361" width="699.493" height="684" transform="rotate(150 738.665 797.361)" fill="url(#paint3_linear_59_363)"/>
<rect x="222.778" y="797.361" width="699.493" height="278.474" transform="rotate(150 222.778 797.361)" fill="url(#paint4_linear_59_363)"/>
<rect x="1069.46" y="940.361" width="291.514" height="684" transform="rotate(150 1069.46 940.361)" fill="url(#paint5_linear_59_363)"/>
</g>
</g>
<defs>
<linearGradient id="paint0_linear_59_363" x1="1700.58" y1="797.361" x2="1700.58" y2="1481.36" gradientUnits="userSpaceOnUse">
<stop stop-color="#7DD1FF"/>
<stop offset="1" stop-color="#08A3F9" stop-opacity="0"/>
</linearGradient>
<linearGradient id="paint1_linear_59_363" x1="2095.58" y1="797.361" x2="2095.58" y2="1671.68" gradientUnits="userSpaceOnUse">
<stop stop-color="#7DD1FF"/>
<stop offset="1" stop-color="#08A3F9" stop-opacity="0"/>
</linearGradient>
<linearGradient id="paint2_linear_59_363" x1="2563.74" y1="797.361" x2="2563.74" y2="1671.68" gradientUnits="userSpaceOnUse">
<stop stop-color="#7DD1FF"/>
<stop offset="1" stop-color="#08A3F9" stop-opacity="0"/>
</linearGradient>
<linearGradient id="paint3_linear_59_363" x1="1088.41" y1="797.361" x2="1088.41" y2="1481.36" gradientUnits="userSpaceOnUse">
<stop stop-color="#7DD1FF"/>
<stop offset="1" stop-color="#08A3F9" stop-opacity="0"/>
</linearGradient>
<linearGradient id="paint4_linear_59_363" x1="572.525" y1="797.361" x2="572.525" y2="1075.84" gradientUnits="userSpaceOnUse">
<stop stop-color="#7DD1FF"/>
<stop offset="1" stop-color="#08A3F9" stop-opacity="0"/>
</linearGradient>
<linearGradient id="paint5_linear_59_363" x1="1215.22" y1="940.361" x2="1215.22" y2="1624.36" gradientUnits="userSpaceOnUse">
<stop stop-color="#7DD1FF"/>
<stop offset="1" stop-color="#08A3F9" stop-opacity="0"/>
</linearGradient>
</defs>
</svg>
