<svg width="394" height="96" viewBox="0 0 394 96" fill="none" xmlns="http://www.w3.org/2000/svg">
<path d="M40.4846 11.4998H19.3305L26.854 22.2096H37.4752L34.8199 26.0686L32.1646 29.8569L32.3328 30.0959H37.3867C43.4714 30.2146 49.2668 32.7151 53.528 37.0603C57.7892 41.4054 60.1761 47.2485 60.1761 53.3344C60.1761 59.4202 57.7892 65.2633 53.528 69.6085C49.2668 73.9536 43.4714 76.4541 37.3867 76.5729H30.6157V45.9127H10.7627V95.1601H40.4758C51.3132 95.1578 61.7061 90.8516 69.3694 83.1883C77.0326 75.5251 81.3388 65.1322 81.3412 54.2947V52.3563C81.3412 46.991 80.2844 41.6781 78.2312 36.7212C76.1779 31.7642 73.1685 27.2603 69.3746 23.4664C65.5807 19.6725 61.0767 16.663 56.1197 14.6098C51.1628 12.5565 45.85 11.4998 40.4846 11.4998ZM24.1101 18.0319L25.9246 14.8986L27.6948 11.7653L29.465 14.8986L31.2352 18.0319H24.1101Z" fill="url(#paint0_linear_59_270)"/>
<path d="M32.4042 30.087H23.8541L18.6143 22.2007H27.1644L32.4042 30.087Z" fill="#3FB0FF"/>
<path d="M18.6139 22.2007L16.6224 19.2621L14.6221 16.3147H18.6139H22.6146L20.6142 19.2621L18.6139 22.2007Z" fill="url(#paint1_linear_59_270)"/>
<path d="M10.5502 10.9597L12.2496 13.4646L13.949 15.9694H10.5502H7.15137L8.85077 13.4646L10.5502 10.9597Z" fill="#2EDAFF"/>
<path d="M14.6224 27.936L12.923 25.4311L11.2236 22.9263H14.6224H18.0213L16.3219 25.4311L14.6224 27.936Z" fill="url(#paint2_linear_59_270)"/>
<path d="M6.46968 17.377L7.93011 19.5278L9.39054 21.6786H6.46968H3.54883L5.00926 19.5278L6.46968 17.377Z" fill="#00C5E7"/>
<path d="M2.4606 12.022L3.69975 13.8453L4.93005 15.6598H2.4606H0L1.2303 13.8453L2.4606 12.022Z" fill="#2EDAFF"/>
<path d="M111.968 54H97.5379V13.2937H112.087C116.182 13.2937 119.706 14.1086 122.661 15.7385C125.616 17.3551 127.889 19.6806 129.479 22.715C131.082 25.7494 131.884 29.3801 131.884 33.6071C131.884 37.8473 131.082 41.4913 129.479 44.539C127.889 47.5866 125.603 49.9254 122.622 51.5552C119.653 53.1851 116.102 54 111.968 54ZM106.144 46.626H111.61C114.154 46.626 116.294 46.1754 118.03 45.2744C119.779 44.3601 121.091 42.9489 121.966 41.0408C122.853 39.1194 123.297 36.6415 123.297 33.6071C123.297 30.5992 122.853 28.1412 121.966 26.2331C121.091 24.325 119.786 22.9204 118.05 22.0193C116.314 21.1183 114.174 20.6678 111.63 20.6678H106.144V46.626ZM142.98 54H133.757L147.81 13.2937H158.9L172.933 54H163.711L153.514 22.5957H153.196L142.98 54ZM142.403 37.9997H164.188V44.7179H142.403V37.9997ZM198.986 25.0007C198.827 23.3974 198.144 22.1518 196.938 21.264C195.733 20.3762 194.096 19.9323 192.029 19.9323C190.624 19.9323 189.438 20.1311 188.471 20.5286C187.504 20.9129 186.762 21.4495 186.245 22.1386C185.742 22.8276 185.49 23.6094 185.49 24.484C185.463 25.2128 185.616 25.8488 185.947 26.3921C186.291 26.9354 186.762 27.4058 187.358 27.8033C187.954 28.1876 188.643 28.5254 189.425 28.817C190.207 29.0952 191.042 29.3337 191.93 29.5325L195.587 30.4071C197.362 30.8046 198.992 31.3346 200.476 31.9971C201.96 32.6597 203.246 33.4746 204.332 34.4419C205.419 35.4092 206.26 36.5488 206.857 37.8606C207.466 39.1724 207.778 40.6764 207.791 42.3725C207.778 44.8636 207.141 47.0235 205.883 48.8521C204.637 50.6674 202.835 52.0786 200.476 53.0857C198.131 54.0795 195.302 54.5764 191.989 54.5764C188.703 54.5764 185.841 54.0729 183.403 53.0658C180.978 52.0588 179.083 50.5681 177.718 48.5937C176.367 46.6061 175.658 44.1481 175.591 41.2197H183.92C184.012 42.5845 184.403 43.724 185.092 44.6383C185.795 45.5394 186.729 46.2218 187.895 46.6856C189.074 47.1361 190.406 47.3614 191.89 47.3614C193.347 47.3614 194.613 47.1494 195.686 46.7253C196.773 46.3013 197.614 45.7117 198.21 44.9564C198.807 44.2011 199.105 43.3332 199.105 42.3526C199.105 41.4383 198.833 40.6698 198.29 40.047C197.76 39.4242 196.978 38.8942 195.945 38.4569C194.924 38.0196 193.672 37.6221 192.188 37.2643L187.756 36.1512C184.324 35.3165 181.614 34.0113 179.626 32.2357C177.639 30.4601 176.652 28.0683 176.665 25.0604C176.652 22.5957 177.307 20.4425 178.632 18.6006C179.971 16.7588 181.806 15.3211 184.138 14.2875C186.47 13.254 189.12 12.7372 192.089 12.7372C195.11 12.7372 197.747 13.254 199.999 14.2875C202.265 15.3211 204.028 16.7588 205.286 18.6006C206.545 20.4425 207.194 22.5759 207.234 25.0007H198.986ZM213.58 54V13.2937H222.186V30.089H239.657V13.2937H248.244V54H239.657V37.1848H222.186V54H213.58ZM263.946 13.2937V54H255.339V13.2937H263.946ZM305.074 13.2937V54H297.641L279.931 28.3797H279.633V54H271.027V13.2937H278.58L296.15 38.8942H296.508V13.2937H305.074ZM326.615 54H312.185V13.2937H326.734C330.829 13.2937 334.354 14.1086 337.308 15.7385C340.263 17.3551 342.536 19.6806 344.126 22.715C345.729 25.7494 346.531 29.3801 346.531 33.6071C346.531 37.8473 345.729 41.4913 344.126 44.539C342.536 47.5866 340.25 49.9254 337.269 51.5552C334.301 53.1851 330.749 54 326.615 54ZM320.791 46.626H326.257C328.802 46.626 330.942 46.1754 332.677 45.2744C334.426 44.3601 335.738 42.9489 336.613 41.0408C337.501 39.1194 337.945 36.6415 337.945 33.6071C337.945 30.5992 337.501 28.1412 336.613 26.2331C335.738 24.325 334.433 22.9204 332.697 22.0193C330.961 21.1183 328.821 20.6678 326.277 20.6678H320.791V46.626ZM390.313 33.6469C390.313 38.0859 389.472 41.8623 387.789 44.9762C386.119 48.0902 383.84 50.4687 380.951 52.1118C378.076 53.7416 374.843 54.5565 371.252 54.5565C367.634 54.5565 364.388 53.735 361.513 52.0919C358.637 50.4488 356.365 48.0703 354.695 44.9564C353.026 41.8424 352.191 38.0726 352.191 33.6469C352.191 29.2079 353.026 25.4314 354.695 22.3175C356.365 19.2035 358.637 16.8317 361.513 15.2018C364.388 13.5587 367.634 12.7372 371.252 12.7372C374.843 12.7372 378.076 13.5587 380.951 15.2018C383.84 16.8317 386.119 19.2035 387.789 22.3175C389.472 25.4314 390.313 29.2079 390.313 33.6469ZM381.588 33.6469C381.588 30.7714 381.157 28.3466 380.296 26.3722C379.448 24.3978 378.248 22.9005 376.698 21.8802C375.148 20.8599 373.332 20.3497 371.252 20.3497C369.172 20.3497 367.356 20.8599 365.806 21.8802C364.256 22.9005 363.05 24.3978 362.188 26.3722C361.34 28.3466 360.916 30.7714 360.916 33.6469C360.916 36.5223 361.34 38.9472 362.188 40.9215C363.05 42.8959 364.256 44.3932 365.806 45.4135C367.356 46.4338 369.172 46.944 371.252 46.944C373.332 46.944 375.148 46.4338 376.698 45.4135C378.248 44.3932 379.448 42.8959 380.296 40.9215C381.157 38.9472 381.588 36.5223 381.588 33.6469Z" fill="#0C6AF2"/>
<path d="M102.748 85.5999C102.776 86.2966 102.95 86.9797 103.258 87.6052C103.566 88.2307 104.002 88.7849 104.537 89.232C105.072 89.6792 105.694 90.0094 106.364 90.2015C107.035 90.3936 107.738 90.4433 108.428 90.3475C111.993 90.3475 113.792 88.8816 113.792 85.9164C113.792 83.2178 112.343 81.7852 107.712 80.1028C102.382 78.1871 100.033 76.4047 100.033 72.69C100.033 68.9752 103.031 66.3433 108.578 66.3433C115.142 66.3433 116.907 69.8914 117.024 72.9065H113.343C113.326 72.2983 113.183 71.7003 112.922 71.1507C112.661 70.6012 112.288 70.1123 111.827 69.7154C111.365 69.3186 110.826 69.0225 110.244 68.8463C109.662 68.6701 109.049 68.6175 108.445 68.692C105.113 68.692 103.781 70.3578 103.781 72.4401C103.781 74.8888 105.23 76.0549 109.495 77.5874C115.441 79.7197 117.624 81.8685 117.624 85.6832C117.624 89.4979 114.592 92.6963 108.329 92.6963C101.515 92.6963 99.2665 89.3646 99 85.5999H102.748Z" fill="#00A4C9"/>
<path d="M139.779 79.2867C139.779 88.0322 137.014 92.7131 129.651 92.7131C122.638 92.7131 119.756 88.1821 119.756 79.3867C119.756 70.5912 123.087 66.3767 129.751 66.3767C136.88 66.3101 139.779 70.5912 139.779 79.2867ZM123.604 79.2867C123.604 86.5996 125.553 90.281 129.767 90.281C133.982 90.281 135.931 86.6995 135.931 79.32C135.931 71.9405 133.982 68.7755 129.751 68.7755C125.52 68.7755 123.604 72.2737 123.604 79.27V79.2867Z" fill="#00A4C9"/>
<path d="M143.693 66.6765H147.425V89.8645H159.568L159.035 92.3465H143.693V66.6765Z" fill="#00A4C9"/>
<path d="M164.782 66.6765V84.6838C164.782 87.5157 165.865 90.2976 170.362 90.2976C174.86 90.2976 176.043 87.9655 176.043 84.6672V66.6765H179.774V84.7172C179.774 89.3814 177.525 92.7297 170.346 92.7297C163.433 92.7297 161.101 89.5813 161.101 84.8671V66.6765H164.782Z" fill="#00A4C9"/>
<path d="M186.255 85.5999C186.283 86.2966 186.457 86.9797 186.765 87.6052C187.073 88.2307 187.508 88.7849 188.043 89.232C188.578 89.6792 189.201 90.0094 189.871 90.2015C190.542 90.3936 191.245 90.4433 191.935 90.3475C195.5 90.3475 197.299 88.8816 197.299 85.9164C197.299 83.2178 195.85 81.7852 191.219 80.1028C185.888 78.1871 183.54 76.4047 183.54 72.69C183.54 68.9752 186.538 66.3433 192.085 66.3433C198.648 66.3433 200.414 69.8914 200.531 72.9065H196.849C196.833 72.2983 196.69 71.7003 196.429 71.1507C196.168 70.6012 195.795 70.1123 195.333 69.7154C194.872 69.3186 194.333 69.0225 193.751 68.8463C193.168 68.6701 192.556 68.6175 191.952 68.692C188.62 68.692 187.288 70.3578 187.288 72.4401C187.288 74.8888 188.737 76.0549 193.001 77.5874C198.948 79.7197 201.13 81.8685 201.13 85.6832C201.13 89.4979 198.099 92.6963 191.835 92.6963C185.022 92.6963 182.773 89.3646 182.507 85.5999H186.255Z" fill="#00A4C9"/>
<path d="M208.36 66.6765V92.3299H204.629V66.6765H208.36Z" fill="#00A4C9"/>
<path d="M233.497 66.6765V92.3299H229.766V66.6765H233.497Z" fill="#00A4C9"/>
<path d="M238.794 92.3299V66.6765H243.392C252.787 84.434 254.119 86.8494 254.552 87.9655C254.319 84.5173 254.253 80.6526 254.253 76.4881V66.6765H257.751V92.3299H253.353C243.591 73.6729 242.392 71.3241 241.992 70.308C242.242 73.523 242.275 77.7208 242.275 82.3351V92.3299H238.794Z" fill="#00A4C9"/>
<path d="M267.162 69.1752H259.583V66.6765H278.473V69.1752H270.894V92.3299H267.162V69.1752Z" fill="#00A4C9"/>
<path d="M295.298 80.0196H283.954V89.8478H296.564L295.981 92.3299H280.189V66.6765H295.798V69.1752H283.888V77.5042H295.232V80.0029L295.298 80.0196Z" fill="#00A4C9"/>
<path d="M317.303 92.3299H314.304C314.153 91.4159 314.075 90.4912 314.071 89.5647C312.955 91.3471 311.256 92.713 307.258 92.713C299.895 92.713 297.963 86.9827 297.963 79.5365C297.963 70.7078 301.561 66.3101 308.474 66.3101C316.62 66.3101 317.153 71.7739 317.253 73.3064H313.521C313.52 72.6567 313.38 72.0148 313.111 71.4233C312.842 70.8318 312.45 70.3043 311.962 69.8758C311.473 69.4472 310.899 69.1275 310.278 68.9378C309.657 68.7481 309.002 68.6928 308.357 68.7755C303.56 68.7755 301.861 73.0399 301.861 79.4866C301.861 85.9332 303.127 90.2643 307.924 90.2643C312.722 90.2643 313.555 87.3658 313.555 81.9353V80.8359H307.641V78.2705H317.236L317.303 92.3299Z" fill="#00A4C9"/>
<path d="M325.482 80.5193V92.3299H321.768V66.6765H330.646C336.36 66.6765 339.342 69.1252 339.342 73.3397C339.418 74.7162 339.002 76.0749 338.169 77.1734C337.336 78.2718 336.14 79.0385 334.794 79.3366C337.942 80.1862 338.925 82.2851 338.925 85.8832V86.8994C338.849 88.7394 339.011 90.5816 339.408 92.3798H335.694C335.252 90.5716 335.083 88.7075 335.194 86.8494V85.9832C335.194 82.335 334.211 80.5693 329.613 80.5693H325.482V80.5193ZM325.482 78.1372H329.83C333.961 78.1372 335.527 76.3715 335.527 73.3897C335.527 70.8077 333.945 69.0753 330.18 69.0753H325.466V78.1372H325.482Z" fill="#00A4C9"/>
<path d="M346.572 84.1675L344.106 92.3133H340.375L348.587 66.6599H353.435L361.897 92.3133H357.933L355.434 84.1675H346.572ZM354.651 81.6688C352.669 75.3721 351.319 71.3575 350.953 69.3085H350.836C350.37 71.5407 348.987 76.155 347.305 81.6688H354.651Z" fill="#00A4C9"/>
<path d="M365.944 85.5999C365.973 86.2966 366.146 86.9797 366.454 87.6052C366.762 88.2307 367.198 88.7849 367.733 89.232C368.268 89.6792 368.891 90.0094 369.561 90.2015C370.231 90.3936 370.934 90.4433 371.625 90.3475C375.19 90.3475 376.989 88.8816 376.989 85.9164C376.989 83.2178 375.539 81.7852 370.908 80.1028C365.578 78.1871 363.229 76.4047 363.229 72.69C363.229 68.9752 366.228 66.3433 371.775 66.3433C378.338 66.3433 380.104 69.8914 380.22 72.9065H376.539C376.523 72.2983 376.379 71.7003 376.118 71.1507C375.857 70.6012 375.484 70.1123 375.023 69.7154C374.562 69.3186 374.023 69.0225 373.44 68.8463C372.858 68.6701 372.245 68.6175 371.641 68.692C368.31 68.692 366.977 70.3578 366.977 72.4401C366.977 74.8888 368.426 76.0549 372.691 77.5874C378.638 79.7197 380.82 81.8685 380.82 85.6832C380.82 89.4979 377.788 92.6963 371.525 92.6963C364.712 92.6963 362.463 89.3646 362.196 85.5999H365.944Z" fill="#00A4C9"/>
<path d="M388 66.6765V92.3299H384.269V66.6765H388Z" fill="#00A4C9"/>
<defs>
<linearGradient id="paint0_linear_59_270" x1="-1.19511" y1="74.4486" x2="75.0215" y2="30.4499" gradientUnits="userSpaceOnUse">
<stop offset="0.34" stop-color="#00DBFF"/>
<stop offset="0.48" stop-color="#02BBFD"/>
<stop offset="0.76" stop-color="#0673F7"/>
<stop offset="0.79" stop-color="#0968F8"/>
<stop offset="0.91" stop-color="#1240FD"/>
<stop offset="0.98" stop-color="#1531FF"/>
</linearGradient>
<linearGradient id="paint1_linear_59_270" x1="14.6221" y1="19.2621" x2="22.6146" y2="19.2621" gradientUnits="userSpaceOnUse">
<stop offset="0.27" stop-color="#00DBFF"/>
<stop offset="0.55" stop-color="#05BBFC"/>
<stop offset="0.74" stop-color="#08A3F9"/>
<stop offset="0.82" stop-color="#0798FB"/>
<stop offset="0.98" stop-color="#0689FF"/>
</linearGradient>
<linearGradient id="paint2_linear_59_270" x1="11.2236" y1="25.4311" x2="18.0213" y2="25.4311" gradientUnits="userSpaceOnUse">
<stop offset="0.27" stop-color="#00DBFF"/>
<stop offset="0.55" stop-color="#05BBFC"/>
<stop offset="0.74" stop-color="#08A3F9"/>
<stop offset="0.82" stop-color="#0798FB"/>
<stop offset="0.98" stop-color="#0689FF"/>
</linearGradient>
</defs>
</svg>
