<svg width="155" height="38" viewBox="0 0 155 38" fill="none" xmlns="http://www.w3.org/2000/svg">
<path d="M15.927 4.52399H7.60497L10.5647 8.73723H14.7431L13.6985 10.2554L12.6539 11.7457L12.7201 11.8397H14.7083C17.102 11.8864 19.3819 12.8701 21.0583 14.5795C22.7346 16.2889 23.6737 18.5876 23.6737 20.9818C23.6737 23.3759 22.7346 25.6746 21.0583 27.384C19.3819 29.0934 17.102 30.0771 14.7083 30.1238H12.0446V18.0621H4.23438V37.4361H15.9235C20.187 37.4351 24.2756 35.7411 27.2903 32.7263C30.305 29.7116 31.9991 25.623 32 21.3596V20.597C32 18.4863 31.5843 16.3962 30.7765 14.4461C29.9688 12.4961 28.7849 10.7242 27.2923 9.23166C25.7998 7.73915 24.028 6.55522 22.0779 5.74747C20.1278 4.93973 18.0377 4.52399 15.927 4.52399V4.52399ZM9.48527 7.09372L10.1991 5.86108L10.8955 4.62845L11.5919 5.86108L12.2883 7.09372H9.48527Z" fill="url(#paint0_linear_59_163)"/>
<path d="M12.7473 11.8362H9.38362L7.32227 8.73376H10.6859L12.7473 11.8362Z" fill="#3FB0FF"/>
<path d="M7.32235 8.73376L6.53889 7.57773L5.75195 6.41821H7.32235H8.89622L8.10928 7.57773L7.32235 8.73376Z" fill="url(#paint1_linear_59_163)"/>
<path d="M4.15057 4.31158L4.81912 5.297L5.48767 6.28241H4.15057H2.81348L3.48202 5.297L4.15057 4.31158Z" fill="#2EDAFF"/>
<path d="M5.75214 10.9901L5.08359 10.0047L4.41504 9.01929H5.75214H7.08923L6.42068 10.0047L5.75214 10.9901Z" fill="url(#paint2_linear_59_163)"/>
<path d="M2.54555 6.83606L3.12009 7.68219L3.69462 8.52832H2.54555H1.39648L1.97102 7.68219L2.54555 6.83606Z" fill="#00C5E7"/>
<path d="M0.968002 4.72943L1.45549 5.44673L1.93949 6.16054H0.968002H0L0.484001 5.44673L0.968002 4.72943Z" fill="#2EDAFF"/>
<path d="M44.0481 22H38.3713V5.98611H44.095C45.7058 5.98611 47.0924 6.3067 48.2549 6.94788C49.4174 7.58385 50.3114 8.4987 50.9369 9.69245C51.5677 10.8862 51.883 12.3145 51.883 13.9774C51.883 15.6455 51.5677 17.0791 50.9369 18.278C50.3114 19.477 49.4122 20.397 48.2393 21.0382C47.0716 21.6794 45.6745 22 44.0481 22ZM41.7571 19.099H43.9074C44.9082 19.099 45.7501 18.9218 46.433 18.5673C47.1211 18.2076 47.6372 17.6525 47.9812 16.9018C48.3305 16.146 48.5051 15.1712 48.5051 13.9774C48.5051 12.7941 48.3305 11.8271 47.9812 11.0765C47.6372 10.3258 47.1237 9.77325 46.4408 9.41877C45.7579 9.0643 44.9161 8.88706 43.9152 8.88706H41.7571V19.099ZM56.2482 22H52.62L58.1482 5.98611H62.5114L68.0318 22H64.4037L60.3924 9.64553H60.2673L56.2482 22ZM56.0214 15.7055H64.5913V18.3484H56.0214V15.7055ZM78.2809 10.5917C78.2184 9.96091 77.9499 9.4709 77.4756 9.12164C77.0012 8.77238 76.3574 8.59775 75.5442 8.59775C74.9916 8.59775 74.5251 8.67594 74.1445 8.83233C73.764 8.9835 73.4721 9.19462 73.2688 9.46569C73.0707 9.73676 72.9717 10.0443 72.9717 10.3884C72.9612 10.6751 73.0212 10.9253 73.1515 11.139C73.287 11.3527 73.4721 11.5378 73.7067 11.6942C73.9412 11.8454 74.2123 11.9783 74.5199 12.093C74.8274 12.2024 75.1558 12.2963 75.5051 12.3745L76.9438 12.7185C77.6424 12.8749 78.2836 13.0834 78.8674 13.3441C79.4512 13.6047 79.9569 13.9253 80.3843 14.3058C80.8118 14.6864 81.1428 15.1347 81.3774 15.6507C81.6172 16.1668 81.7397 16.7585 81.7449 17.4257C81.7397 18.4057 81.4895 19.2554 80.9942 19.9748C80.5042 20.689 79.7953 21.2441 78.8674 21.6403C77.9447 22.0313 76.8318 22.2268 75.5286 22.2268C74.2358 22.2268 73.1098 22.0287 72.1506 21.6325C71.1967 21.2363 70.4512 20.6499 69.9143 19.8732C69.3826 19.0912 69.1037 18.1242 69.0776 16.9722H72.3539C72.3904 17.5091 72.5442 17.9574 72.8153 18.3171C73.0915 18.6716 73.4591 18.9401 73.9178 19.1225C74.3817 19.2997 74.9056 19.3884 75.4895 19.3884C76.0629 19.3884 76.5607 19.305 76.9829 19.1381C77.4104 18.9713 77.7414 18.7394 77.976 18.4422C78.2106 18.1451 78.3279 17.8037 78.3279 17.4179C78.3279 17.0582 78.221 16.7559 78.0073 16.5109C77.7988 16.2659 77.4912 16.0573 77.0846 15.8853C76.6832 15.7133 76.1906 15.5569 75.6068 15.4162L73.8631 14.9783C72.5129 14.6499 71.4469 14.1364 70.665 13.4379C69.883 12.7394 69.4947 11.7984 69.4999 10.6151C69.4947 9.64553 69.7527 8.79844 70.274 8.07386C70.8005 7.34927 71.5225 6.78367 72.4399 6.37707C73.3574 5.97047 74.4 5.76717 75.5677 5.76717C76.7562 5.76717 77.7935 5.97047 78.6797 6.37707C79.5711 6.78367 80.2644 7.34927 80.7597 8.07386C81.2549 8.79844 81.5103 9.63771 81.5259 10.5917H78.2809ZM84.0223 22V5.98611H87.408V12.5934H94.2812V5.98611H97.6591V22H94.2812V15.3849H87.408V22H84.0223ZM103.836 5.98611V22H100.451V5.98611H103.836ZM120.016 5.98611V22H117.092L110.125 11.9209H110.008V22H106.622V5.98611H109.593L116.506 16.0573H116.646V5.98611H120.016ZM128.491 22H122.814V5.98611H128.537C130.148 5.98611 131.535 6.3067 132.697 6.94788C133.86 7.58385 134.754 8.4987 135.379 9.69245C136.01 10.8862 136.325 12.3145 136.325 13.9774C136.325 15.6455 136.01 17.0791 135.379 18.278C134.754 19.477 133.855 20.397 132.682 21.0382C131.514 21.6794 130.117 22 128.491 22ZM126.199 19.099H128.35C129.351 19.099 130.193 18.9218 130.875 18.5673C131.564 18.2076 132.08 17.6525 132.424 16.9018C132.773 16.146 132.948 15.1712 132.948 13.9774C132.948 12.7941 132.773 11.8271 132.424 11.0765C132.08 10.3258 131.566 9.77325 130.883 9.41877C130.2 9.0643 129.358 8.88706 128.358 8.88706H126.199V19.099ZM153.549 13.9931C153.549 15.7394 153.218 17.225 152.556 18.45C151.899 19.6751 151.003 20.6108 149.866 21.2572C148.735 21.8983 147.463 22.2189 146.051 22.2189C144.628 22.2189 143.35 21.8957 142.219 21.2493C141.088 20.603 140.194 19.6672 139.537 18.4422C138.88 17.2172 138.552 15.7341 138.552 13.9931C138.552 12.2467 138.88 10.7611 139.537 9.53606C140.194 8.31104 141.088 7.37794 142.219 6.73676C143.35 6.09036 144.628 5.76717 146.051 5.76717C147.463 5.76717 148.735 6.09036 149.866 6.73676C151.003 7.37794 151.899 8.31104 152.556 9.53606C153.218 10.7611 153.549 12.2467 153.549 13.9931ZM150.117 13.9931C150.117 12.8619 149.947 11.9079 149.608 11.1312C149.275 10.3545 148.803 9.76543 148.193 9.36404C147.583 8.96265 146.869 8.76195 146.051 8.76195C145.232 8.76195 144.518 8.96265 143.908 9.36404C143.298 9.76543 142.824 10.3545 142.485 11.1312C142.151 11.9079 141.985 12.8619 141.985 13.9931C141.985 15.1242 142.151 16.0782 142.485 16.8549C142.824 17.6316 143.298 18.2207 143.908 18.6221C144.518 19.0235 145.232 19.2242 146.051 19.2242C146.869 19.2242 147.583 19.0235 148.193 18.6221C148.803 18.2207 149.275 17.6316 149.608 16.8549C149.947 16.0782 150.117 15.1242 150.117 13.9931Z" fill="#0C6AF2"/>
<path d="M40.4208 33.6751C40.4319 33.9492 40.5002 34.2179 40.6214 34.464C40.7426 34.7101 40.9139 34.9281 41.1244 35.104C41.3349 35.2799 41.5798 35.4098 41.8435 35.4854C42.1072 35.561 42.3838 35.5805 42.6554 35.5428C44.0579 35.5428 44.7656 34.9661 44.7656 33.7997C44.7656 32.738 44.1955 32.1744 42.3737 31.5126C40.2766 30.7589 39.3526 30.0577 39.3526 28.5963C39.3526 27.135 40.5322 26.0995 42.7144 26.0995C45.2964 26.0995 45.9911 27.4954 46.0369 28.6815H44.5887C44.5822 28.4423 44.5259 28.207 44.4232 27.9908C44.3205 27.7746 44.1737 27.5823 43.9923 27.4262C43.8108 27.27 43.5988 27.1536 43.3697 27.0842C43.1406 27.0149 42.8995 26.9942 42.662 27.0236C41.3513 27.0236 40.8271 27.6789 40.8271 28.498C40.8271 29.4614 41.3972 29.9201 43.0749 30.523C45.4144 31.3618 46.2729 32.2072 46.2729 33.7079C46.2729 35.2086 45.0802 36.4668 42.6161 36.4668C39.9358 36.4668 39.0511 35.1562 38.9463 33.6751H40.4208Z" fill="#00A4C9"/>
<path d="M54.9884 31.1915C54.9884 34.6319 53.9005 36.4734 51.004 36.4734C48.245 36.4734 47.1113 34.6909 47.1113 31.2308C47.1113 27.7706 48.422 26.1127 51.0433 26.1127C53.8481 26.0865 54.9884 27.7706 54.9884 31.1915ZM48.6251 31.1915C48.6251 34.0684 49.3919 35.5166 51.0498 35.5166C52.7078 35.5166 53.4746 34.1077 53.4746 31.2046C53.4746 28.3015 52.7078 27.0563 51.0433 27.0563C49.3788 27.0563 48.6251 28.4325 48.6251 31.1849V31.1915Z" fill="#00A4C9"/>
<path d="M56.5283 26.2306H57.9963V35.3528H62.7736L62.5639 36.3292H56.5283V26.2306Z" fill="#00A4C9"/>
<path d="M64.8252 26.2306V33.3147C64.8252 34.4287 65.2512 35.5231 67.0206 35.5231C68.79 35.5231 69.2552 34.6057 69.2552 33.3081V26.2306H70.7232V33.3278C70.7232 35.1627 69.8385 36.4799 67.014 36.4799C64.2944 36.4799 63.377 35.2414 63.377 33.3868V26.2306H64.8252Z" fill="#00A4C9"/>
<path d="M73.2723 33.6751C73.2835 33.9492 73.3518 34.2179 73.473 34.464C73.5941 34.7101 73.7655 34.9281 73.9759 35.104C74.1864 35.2799 74.4314 35.4098 74.6951 35.4854C74.9587 35.561 75.2353 35.5805 75.507 35.5428C76.9094 35.5428 77.6172 34.9661 77.6172 33.7997C77.6172 32.738 77.047 32.1744 75.2252 31.5126C73.1282 30.7589 72.2042 30.0577 72.2042 28.5963C72.2042 27.135 73.3837 26.0995 75.566 26.0995C78.148 26.0995 78.8426 27.4954 78.8885 28.6815H77.4402C77.4338 28.4423 77.3774 28.207 77.2747 27.9908C77.172 27.7746 77.0252 27.5823 76.8438 27.4262C76.6624 27.27 76.4503 27.1536 76.2212 27.0842C75.9922 27.0149 75.7511 26.9942 75.5136 27.0236C74.2029 27.0236 73.6786 27.6789 73.6786 28.498C73.6786 29.4614 74.2488 29.9201 75.9264 30.523C78.2659 31.3618 79.1244 32.2072 79.1244 33.7079C79.1244 35.2086 77.9317 36.4668 75.4677 36.4668C72.7874 36.4668 71.9027 35.1562 71.7979 33.6751H73.2723Z" fill="#00A4C9"/>
<path d="M81.9689 26.2306V36.3226H80.501V26.2306H81.9689Z" fill="#00A4C9"/>
<path d="M91.8576 26.2306V36.3226H90.3896V26.2306H91.8576Z" fill="#00A4C9"/>
<path d="M93.9414 36.3226V26.2306H95.7501C99.4462 33.2164 99.9704 34.1666 100.141 34.6057C100.049 33.2492 100.023 31.7288 100.023 30.0905V26.2306H101.399V36.3226H99.669C95.8288 28.983 95.3569 28.059 95.1996 27.6592C95.2979 28.924 95.311 30.5754 95.311 32.3907V36.3226H93.9414Z" fill="#00A4C9"/>
<path d="M105.102 27.2136H102.12V26.2306H109.552V27.2136H106.57V36.3226H105.102V27.2136Z" fill="#00A4C9"/>
<path d="M116.17 31.4798H111.708V35.3462H116.668L116.439 36.3226H110.227V26.2306H116.367V27.2136H111.681V30.4902H116.144V31.4732L116.17 31.4798Z" fill="#00A4C9"/>
<path d="M124.827 36.3227H123.648C123.588 35.9631 123.557 35.5993 123.556 35.2348C123.117 35.936 122.448 36.4734 120.875 36.4734C117.979 36.4734 117.219 34.2191 117.219 31.2897C117.219 27.8165 118.634 26.0864 121.354 26.0864C124.558 26.0864 124.768 28.2359 124.807 28.8388H123.34C123.339 28.5832 123.284 28.3307 123.178 28.098C123.072 27.8653 122.918 27.6578 122.726 27.4892C122.534 27.3206 122.308 27.1948 122.064 27.1202C121.819 27.0456 121.562 27.0238 121.308 27.0563C119.421 27.0563 118.752 28.734 118.752 31.2701C118.752 33.8062 119.25 35.51 121.138 35.51C123.025 35.51 123.353 34.3698 123.353 32.2334V31.8009H121.026V30.7917H124.801L124.827 36.3227Z" fill="#00A4C9"/>
<path d="M128.044 31.6764V36.3226H126.583V26.2306H130.076C132.324 26.2306 133.497 27.1939 133.497 28.8519C133.527 29.3934 133.363 29.9279 133.035 30.3601C132.708 30.7922 132.237 31.0938 131.708 31.2111C132.946 31.5453 133.333 32.371 133.333 33.7865V34.1863C133.303 34.9101 133.367 35.6349 133.523 36.3423H132.062C131.888 35.631 131.821 34.8976 131.865 34.1666V33.8258C131.865 32.3907 131.478 31.696 129.67 31.696H128.044V31.6764ZM128.044 30.7392H129.755C131.38 30.7392 131.996 30.0446 131.996 28.8716C131.996 27.8558 131.373 27.1743 129.892 27.1743H128.038V30.7392H128.044Z" fill="#00A4C9"/>
<path d="M136.341 33.1116L135.371 36.3161H133.903L137.134 26.2241H139.041L142.37 36.3161H140.81L139.827 33.1116H136.341ZM139.519 32.1286C138.74 29.6514 138.209 28.0721 138.065 27.266H138.019C137.835 28.1442 137.291 29.9594 136.629 32.1286H139.519Z" fill="#00A4C9"/>
<path d="M143.963 33.6751C143.974 33.9492 144.042 34.2179 144.163 34.464C144.285 34.7101 144.456 34.9281 144.666 35.104C144.877 35.2799 145.122 35.4098 145.385 35.4854C145.649 35.561 145.926 35.5805 146.197 35.5428C147.6 35.5428 148.308 34.9661 148.308 33.7997C148.308 32.738 147.737 32.1744 145.916 31.5126C143.819 30.7589 142.895 30.0577 142.895 28.5963C142.895 27.135 144.074 26.0995 146.256 26.0995C148.838 26.0995 149.533 27.4954 149.579 28.6815H148.131C148.124 28.4423 148.068 28.207 147.965 27.9908C147.862 27.7746 147.716 27.5823 147.534 27.4262C147.353 27.27 147.141 27.1536 146.912 27.0842C146.683 27.0149 146.442 26.9942 146.204 27.0236C144.893 27.0236 144.369 27.6789 144.369 28.498C144.369 29.4614 144.939 29.9201 146.617 30.523C148.956 31.3618 149.815 32.2072 149.815 33.7079C149.815 35.2086 148.622 36.4668 146.158 36.4668C143.478 36.4668 142.593 35.1562 142.488 33.6751H143.963Z" fill="#00A4C9"/>
<path d="M152.639 26.2306V36.3226H151.171V26.2306H152.639Z" fill="#00A4C9"/>
<defs>
<linearGradient id="paint0_linear_59_163" x1="-0.469839" y1="29.2881" x2="29.5139" y2="11.979" gradientUnits="userSpaceOnUse">
<stop offset="0.34" stop-color="#00DBFF"/>
<stop offset="0.48" stop-color="#02BBFD"/>
<stop offset="0.76" stop-color="#0673F7"/>
<stop offset="0.79" stop-color="#0968F8"/>
<stop offset="0.91" stop-color="#1240FD"/>
<stop offset="0.98" stop-color="#1531FF"/>
</linearGradient>
<linearGradient id="paint1_linear_59_163" x1="5.75195" y1="7.57773" x2="8.89622" y2="7.57773" gradientUnits="userSpaceOnUse">
<stop offset="0.27" stop-color="#00DBFF"/>
<stop offset="0.55" stop-color="#05BBFC"/>
<stop offset="0.74" stop-color="#08A3F9"/>
<stop offset="0.82" stop-color="#0798FB"/>
<stop offset="0.98" stop-color="#0689FF"/>
</linearGradient>
<linearGradient id="paint2_linear_59_163" x1="4.41504" y1="10.0047" x2="7.08923" y2="10.0047" gradientUnits="userSpaceOnUse">
<stop offset="0.27" stop-color="#00DBFF"/>
<stop offset="0.55" stop-color="#05BBFC"/>
<stop offset="0.74" stop-color="#08A3F9"/>
<stop offset="0.82" stop-color="#0798FB"/>
<stop offset="0.98" stop-color="#0689FF"/>
</linearGradient>
</defs>
</svg>
